Coordinates
version=1
nRows=26
nColumns=22
inDegrees=yes

Units are S.I. units (second, meters, Newtons, ...)
If the header above contains a line with 'inDegrees', this indicates whether rotational values are in degrees (yes) or radians (no).

endheader
time	pelvis_tilt	pelvis_list	pelvis_rotation	pelvis_tx	pelvis_ty	pelvis_tz	hip_flexion_r	hip_adduction_r	hip_rotation_r	knee_angle_r	ankle_angle_r	subtalar_angle_r	hip_flexion_l	hip_adduction_l	hip_rotation_l	knee_angle_l	ankle_angle_l	subtalar_angle_l	lumbar_extension	lumbar_bending	lumbar_rotation
      2.67000000	      3.87979845	     -4.29317469	     32.69015772	     -0.60395625	      0.99226474	      0.21282800	    -12.91689128	      9.79209929	     -8.33358897	    -14.87999045	     14.83995785	      4.42434865	     24.37909876	     -4.67026830	    -18.47903569	    -26.34536984	      7.03221896	     -6.36275647	    -15.95225106	      3.96994903	     11.41559413
      2.68000000	      3.85197766	     -4.11091998	     32.88226049	     -0.59764432	      0.99283262	      0.20773359	    -12.94060997	      9.51157883	     -8.27183088	    -15.81849467	     14.32235878	      5.33736095	     24.03733882	     -4.40718398	    -18.19233422	    -26.68474993	      7.06931597	     -6.93438486	    -15.83014729	      3.73521135	     11.32790816
      2.69000000	      3.81112618	     -3.95509256	     33.05532531	     -0.59136300	      0.99347221	      0.20253660	    -12.85656480	      9.22468893	     -8.17589715	    -16.89631964	     13.72590157	      6.28916463	     23.64737525	     -4.13765223	    -17.95212361	    -26.89661409	      7.14082840	     -7.52035156	    -15.66886088	      3.52813040	     11.27365085
      2.70000000	      3.75580903	     -3.82794231	     33.20473840	     -0.58512387	      0.99417721	      0.19727299	    -12.65196719	      8.93178794	     -8.04067441	    -18.12646284	     13.04619897	      7.27659806	     23.21712815	     -3.86715606	    -17.75384834	    -26.99253500	      7.25096384	     -8.10143229	    -15.46632615	      3.34695382	     11.24761152
      2.71000000	      3.68341960	     -3.72572799	     33.32740197	     -0.57894131	      0.99494579	      0.19196702	    -12.31907585	      8.62693564	     -7.86720359	    -19.51658067	     12.27125503	      8.27844391	     22.75553674	     -3.59531179	    -17.59149002	    -26.98957304	      7.40312680	     -8.63927083	    -15.22330522	      3.18657573	     11.24108737
      2.72000000	      3.59587391	     -3.64503030	     33.42462433	     -0.57282307	      0.99577809	      0.18665669	    -11.85529425	      8.31110557	     -7.65772932	    -21.07116973	     11.40874692	      9.28417085	     22.26701765	     -3.32640990	    -17.46369415	    -26.90059293	      7.58898722	     -9.10687609	    -14.94632957	      3.04303642	     11.24151084
      2.73000000	      3.50523404	     -3.57998818	     33.51010176	     -0.56679379	      0.99666569	      0.18135202	    -11.27814763	      7.98928392	     -7.41930541	    -22.78027155	     10.45035368	     10.31028403	     21.76016710	     -3.06401393	    -17.34303012	    -26.76368660	      7.84802938	     -9.50279194	    -14.65736053	      2.91819064	     11.23584032
      2.74000000	      3.39960696	     -3.51599796	     33.58110557	     -0.56085355	      0.99759560	      0.17610494	    -10.57963811	      7.64384986	     -7.16220384	    -24.65048609	      9.42529779	     11.28177522	     21.23976490	     -2.79901884	    -17.25466843	    -26.57919267	      8.11630785	     -9.78983846	    -14.35805849	      2.78221405	     11.21939148
      2.75000000	      3.29667597	     -3.45893486	     33.66342098	     -0.55504285	      0.99853694	      0.17088008	     -9.78415139	      7.29519362	     -6.89253961	    -26.65613678	      8.35026324	     12.27355104	     20.71291516	     -2.54169617	    -17.17002294	    -26.37577979	      8.44416770	    -10.00355498	    -14.06652121	      2.66442404	     11.15699186
      2.76000000	      3.17170901	     -3.37853859	     33.72904296	     -0.54935414	      0.99947639	      0.16574006	     -8.87316485	      6.89060178	     -6.64314774	    -28.82664285	      7.30699167	     13.09231458	     20.16858753	     -2.26211545	    -17.14080570	    -26.12199712	      8.70782908	    -10.10713527	    -13.78580729	      2.50481054	     11.10699270
      2.77000000	      3.05344693	     -3.30986185	     33.83419604	     -0.54381425	      1.00035331	      0.16063605	     -7.88325412	      6.49896158	     -6.39820467	    -31.09426333	      6.28615973	     13.97081448	     19.63809315	     -1.99708497	    -17.10105483	    -25.87597755	      9.05051046	    -10.16495549	    -13.52007604	      2.36742958	     10.96840242
      2.78000000	      2.92330884	     -3.21141879	     33.94752917	     -0.53843301	      1.00116558	      0.15559688	     -6.80839060	      6.05406928	     -6.20009879	    -33.48503285	      5.38486544	     14.68738306	     19.09476759	     -1.70300722	    -17.09172084	    -25.60138859	      9.35591447	    -10.16023738	    -13.28597918	      2.19422008	     10.81677657
      2.79000000	      2.78498816	     -3.09172191	     34.08601708	     -0.53322403	      1.00187446	      0.15060508	     -5.66213584	      5.57006514	     -6.04947341	    -35.95988737	      4.63488075	     15.29560946	     18.55253694	     -1.38416787	    -17.08861998	    -25.31657739	      9.66183076	    -10.12127419	    -13.08153227	      1.99997460	     10.62460444
      2.80000000	      2.63980152	     -2.94749718	     34.25372612	     -0.52818393	      1.00247304	      0.14565233	     -4.46126526	      5.04457611	     -5.94919421	    -38.47733577	      4.05175943	     15.79061092	     18.01090301	     -1.03692017	    -17.08378231	    -25.02681430	      9.95519699	    -10.06350062	    -12.90909890	      1.78250883	     10.39048117
      2.81000000	      2.48834035	     -2.76806101	     34.45010290	     -0.52331615	      1.00295882	      0.14072982	     -3.22558913	      4.46763290	     -5.89563663	    -40.99770319	      3.68033559	     16.12454751	     17.46173784	     -0.64848087	    -17.06936062	    -24.72919137	     10.24730218	    -10.00097472	    -12.77559526	      1.53340485	     10.11523396
      2.82000000	      2.36697180	     -2.51739358	     34.67492548	     -0.51858443	      1.00345101	      0.13580294	     -2.03752381	      3.83161133	     -5.87456869	    -43.44716291	      3.48319084	     16.23782141	     16.83161209	     -0.20382319	    -17.04099278	    -24.39375197	     10.50251990	     -9.94823715	    -12.73529264	      1.24385006	      9.79078987
      2.83000000	      2.22771787	     -2.27842435	     34.94092411	     -0.51404152	      1.00378699	      0.13088293	     -0.80140767	      3.17998691	     -5.89004308	    -45.80654149	      3.52033319	     16.22938016	     16.24966748	      0.25047861	    -16.97025592	    -24.08273146	     10.77242897	     -9.89565464	    -12.68576436	      0.96876433	      9.44230497
      2.84000000	      2.09975575	     -2.03488804	     35.24824773	     -0.50965571	      1.00406845	      0.12595480	      0.42419453	      2.52111203	     -5.92663205	    -48.01396406	      3.73804186	     16.00700107	     15.66788537	      0.71273278	    -16.85467167	    -23.77796836	     11.03024010	     -9.85140634	    -12.66192255	      0.70954366	      9.05880962
      2.85000000	      1.96983845	     -1.82833099	     35.59918818	     -0.50543199	      1.00426452	      0.12102924	      1.67100090	      1.88724483	     -5.98321898	    -50.03662797	      4.05093412	     15.36051150	     15.13541971	      1.15184140	    -16.68207122	    -23.50288161	     11.30103283	     -9.82598222	    -12.61943837	      0.50065509	      8.65591825
      2.86000000	      1.90299427	     -1.58183827	     35.98490204	     -0.50130771	      1.00459236	      0.11606212	      2.80183982	      1.26237583	     -6.01086859	    -51.81802875	      4.49770038	     14.54314717	     14.50515907	      1.60239211	    -16.45061579	    -23.18564302	     11.54044150	     -9.81016538	    -12.66706500	      0.31246838	      8.20221691
      2.87000000	      1.87575355	     -1.35712049	     36.41355181	     -0.49732764	      1.00495104	      0.11108747	      3.88618452	      0.67811277	     -6.04611315	    -53.36479674	      5.00348159	     13.54387924	     13.87627999	      2.01301624	    -16.15775623	    -22.90108843	     11.77507138	     -9.80401464	    -12.74354799	      0.18628150	      7.74896924
      2.88000000	      1.88074535	     -1.16122224	     36.87938011	     -0.49346635	      1.00535149	      0.10609998	      4.92543439	      0.14842998	     -6.05830010	    -54.65879447	      5.51011791	     12.44252844	     13.24657263	      2.38170902	    -15.80957023	    -22.62529028	     11.99818585	     -9.80411223	    -12.83122650	      0.12747722	      7.26408983
      2.89000000	      1.90756604	     -0.99406514	     37.37874874	     -0.48974197	      1.00578525	      0.10111668	      5.93556103	     -0.33614534	     -6.05177573	    -55.70973311	      5.93959394	     11.33825574	     12.62658311	      2.71833098	    -15.37558384	    -22.35793934	     12.19850148	     -9.80385927	    -12.92275158	      0.12390949	      6.79177541
      2.90000000	      1.96227209	     -0.86276319	     37.90150875	     -0.48609569	      1.00624394	      0.09614495	      6.90517263	     -0.75602286	     -6.01649031	    -56.50740055	      6.30349457	     10.23357297	     12.01791790	      2.99675091	    -14.92620479	    -22.11286387	     12.41593083	     -9.80888501	    -13.01256006	      0.18358050	      6.30355651
      2.91000000	      2.03027804	     -0.75973961	     38.44727149	     -0.48255814	      1.00671907	      0.09121590	      7.84928871	     -1.12056424	     -5.94034979	    -57.06568569	      6.57092858	      9.23538558	     11.42609855	      3.24197984	    -14.40697906	    -21.87677645	     12.59364865	     -9.80721015	    -13.09897517	      0.28343374	      5.83573772
      2.92000000	      2.11460716	     -0.68549150	     39.00036648	     -0.47906347	      1.00719567	      0.08634520	      8.76220577	     -1.41565674	     -5.80676957	    -57.38862343	      6.76825019	      8.30775015	     10.84682793	      3.43619756	    -13.89408860	    -21.65266223	     12.80058143	     -9.80756961	    -13.17791475	      0.42031840	      5.38131325
